<?xml version="1.0" standalone="no"?><!DOCTYPE svg PUBLIC "-//W3C//DTD SVG 1.1//EN" "http://www.w3.org/Graphics/SVG/1.1/DTD/svg11.dtd"><svg t="1567355346853" class="icon" viewBox="0 0 1024 1024" version="1.1" xmlns="http://www.w3.org/2000/svg" p-id="1297" width="250" height="250" xmlns:xlink="http://www.w3.org/1999/xlink"><defs><style type="text/css"></style></defs><path d="M130.637 552.628c-8.188 0-16.376-3.123-22.624-9.369-12.499-12.495-12.501-32.756-0.007-45.255l382.521-382.628c12.496-12.498 32.758-12.501 45.255-0.006 12.499 12.495 12.502 32.756 0.007 45.254L153.268 543.252c-6.248 6.25-14.44 9.376-22.631 9.376z" fill="" p-id="1298"></path><path d="M896.174 552.628c-8.191 0-16.382-3.125-22.631-9.376L491.022 160.624c-12.495-12.499-12.492-32.76 0.007-45.254s32.76-12.492 45.255 0.006l382.521 382.628c12.495 12.499 12.492 32.76-0.007 45.255-6.247 6.246-14.437 9.369-22.624 9.369zM870.174 192H678.137c-17.673 0-32-14.327-32-32s14.327-32 32-32h192.037c17.673 0 32 14.327 32 32s-14.327 32-32 32z" fill="" p-id="1299"></path><path d="M869.155 385.019c-17.673 0-32-14.327-32-32V160.981c0-17.673 14.327-32 32-32s32 14.327 32 32v192.037c0 17.674-14.327 32.001-32 32.001zM842.408 930.671l-275.632-1.592 1.546-227.582-104.362 1.712 3.114 226.844-282.477-3.581-6.806-349.74c-0.344-17.669 13.702-32.272 31.372-32.616 17.666-0.336 32.273 13.701 32.616 31.372l5.6 287.775 154.799 1.962-3.088-224.961 233.675-3.831-1.555 229.017 147.171 0.85-0.121-290.24c-0.008-17.674 14.313-32.006 31.986-32.014h0.014c17.668 0 31.992 14.318 32 31.986l0.148 354.639z" fill="" p-id="1300"></path></svg>