<?xml version="1.0" standalone="no"?><!DOCTYPE svg PUBLIC "-//W3C//DTD SVG 1.1//EN" "http://www.w3.org/Graphics/SVG/1.1/DTD/svg11.dtd"><svg t="1567355669579" class="icon" viewBox="0 0 1024 1024" version="1.1" xmlns="http://www.w3.org/2000/svg" p-id="2930" xmlns:xlink="http://www.w3.org/1999/xlink" width="250" height="250"><defs><style type="text/css"></style></defs><path d="M460.8 982.4c-25.6 0-48-9.6-67.2-28.8L70.4 630.4c-38.4-38.4-38.4-99.2 0-134.4L521.6 41.6c3.2-6.4 12.8-9.6 22.4-9.6h352c54.4 0 96 41.6 96 96v352c0 9.6-3.2 19.2-9.6 25.6l-451.2 448c-19.2 19.2-44.8 28.8-70.4 28.8z m96-886.4L115.2 540.8c-12.8 12.8-12.8 32 0 44.8l326.4 326.4c12.8 12.8 32 12.8 44.8 0L928 467.2V128c0-19.2-12.8-32-32-32H556.8zM608 579.2c-41.6 0-83.2-16-112-48-28.8-28.8-48-70.4-48-112s16-83.2 48-112c60.8-60.8 163.2-60.8 227.2 0 28.8 28.8 48 70.4 48 112s-16 83.2-48 112c-32 32-73.6 48-115.2 48z m0-256c-25.6 0-51.2 9.6-67.2 28.8s-28.8 41.6-28.8 67.2 9.6 51.2 28.8 67.2c35.2 35.2 99.2 35.2 134.4 0 19.2-19.2 28.8-41.6 28.8-67.2s-9.6-51.2-28.8-67.2-41.6-28.8-67.2-28.8z" p-id="2931"></path></svg>